<?xml version="1.0" standalone="no"?><!DOCTYPE svg PUBLIC "-//W3C//DTD SVG 1.1//EN" "http://www.w3.org/Graphics/SVG/1.1/DTD/svg11.dtd"><svg t="1566817038897" class="icon" viewBox="0 0 1024 1024" version="1.1" xmlns="http://www.w3.org/2000/svg" p-id="1216" xmlns:xlink="http://www.w3.org/1999/xlink" width="200" height="200"><defs><style type="text/css"></style></defs><path d="M661.504 176.064h-119.04v-55.872c0-30.72-26.752-55.872-59.52-55.872h-119.04c-32.704 0-59.52 25.152-59.52 55.872v55.872h-119.04V303.36h476.16V176.064z m-178.56 0h-119.04V120.32l0.128-0.128h118.848l0.064 0.128v55.744z m297.6 216.96V204.032c0-15.36-13.376-27.968-29.76-27.968h-59.52v55.872h29.76V392.96H380.16v434.112H125.824V232h29.76v-55.936h-59.52c-16.384 0-29.76 12.608-29.76 27.968V855.04c0 15.36 13.376 27.968 29.76 27.968H380.16v75.264h405.824l173.12-154.112V393.024h-178.56z m6.4 486.208v-73.088h88.064l-88.064 73.088z m112.704-128.896h-172.16v152.128H439.68V448.896h459.968v301.44z" p-id="1217"></path><path d="M512 512h320v64H512zM512 640h192v64H512zM512 768h128v64H512z" p-id="1218"></path></svg>