<?xml version="1.0" standalone="no"?><!DOCTYPE svg PUBLIC "-//W3C//DTD SVG 1.1//EN" "http://www.w3.org/Graphics/SVG/1.1/DTD/svg11.dtd"><svg t="1563349091985" class="icon" viewBox="0 0 1024 1024" version="1.1" xmlns="http://www.w3.org/2000/svg" p-id="1112" width="16" height="16" xmlns:xlink="http://www.w3.org/1999/xlink"><defs><style type="text/css"></style></defs><path d="M943.587252 348.249277c23.758201 0 43.552445-27.716077 43.552446-59.392462v-39.594569c0-31.676385-19.793028-59.392462-43.552446-59.392463h-75.233695V110.679428c0-43.553661-35.634261-79.189139-79.186706-79.189138H116.049441C72.49578 31.49029 36.860302 67.125767 36.860302 110.679428v791.903551c0 43.551229 35.635477 79.186706 79.189139 79.186706h673.11741c43.553661 0 79.186706-35.635477 79.186706-79.186706v-79.197653h75.233695c23.758201 0 43.552445-27.708779 43.552446-59.392462v-39.588488c0-31.681251-19.793028-59.39003-43.552446-59.39003h-75.233695v-79.197653h75.233695c23.758201 0 43.552445-27.708779 43.552446-59.392462v-39.59092c0-31.676385-19.793028-59.392462-43.552446-59.392462h-75.233695v-79.189139h75.233695z m-75.233695-118.784924h39.598218c39.588488 0 39.588488 0 39.588488 39.594569 0 39.595786 0 39.595786-39.588488 39.595786h-39.598218v-79.190355zM195.239796 823.385326c0 19.805191-15.838801 39.599435-39.594569 39.599434-23.756985 0-39.595786-15.840017-39.595786-39.599434V189.871c0-19.797893 15.838801-39.594569 39.595786-39.59457 23.755769 0 39.594569 15.837584 39.594569 39.59457v633.514326z m364.006585 21.658848c-11.197358 11.197358-24.115797 16.797254-38.744368 16.797254-17.915044 0-32.402523-5.676523-43.446626-17.021055-11.050185-11.343316-16.572236-24.333516-16.572236-38.966953 0-15.52256 5.669225-28.889817 17.019839-40.087175 11.344532-11.197358 24.929509-16.797254 40.759795-16.797254 15.824205 0 29.407965 5.599895 40.759795 16.797254 11.344532 11.197358 17.019839 24.564615 17.019839 40.087175 0.001216 14.933865-5.598679 27.993396-16.796038 39.190754z m136.834979-472.091622c-9.854551 23.73874-35.538172 55.316604-77.039918 94.732376-31.352847 29.561221-52.404756 52.705185-63.154511 69.424595-10.749756 16.726708-16.124634 34.790141-16.124634 54.197598 0 21.799941 5.220406 44.496302 15.677031 68.081787h-83.757602c-7.468149-22.094288-11.197358-45.687071-11.197359-70.769834 0-19.707886 4.478457-39.639573 13.436587-59.795061 8.95813-20.155488 31.801665-47.995629 68.52939-83.533802 37.624146-35.530875 60.690266-62.259307 69.200793-80.175567 8.510528-17.91626 12.765183-34.936099 12.765183-51.060732 0-28.666016-10.15498-51.28575-30.457641-67.857986-20.308743-16.572236-46.133457-24.858963-77.486304-24.858963-54.645201 0-102.42311 21.499512-143.330079 64.498536v-91.820528c49.865099-31.052418 101.673862-46.582276 155.422642-46.582276 54.938332 0 99.056361 13.885405 132.355306 41.655001 33.291646 27.770811 49.941726 65.695385 49.941726 113.767641 0.001216 22.998007-4.926059 46.358474-14.78061 70.097215z m211.870415 331.646633c39.588488 0 39.588488 0 39.588488 39.599435 0 39.598218 0 39.598218-39.588488 39.598218h-39.598218v-79.196437h39.598218z m0-237.563767c39.588488 0 39.588488 0 39.588488 39.593353 0 39.600651 0 39.600651-39.588488 39.600651h-39.598218v-79.194004h39.598218z" p-id="1113" fill="#B3B3B3"></path></svg>